<svg width="97" height="40" viewBox="0 0 97 40" fill="none" xmlns="http://www.w3.org/2000/svg">
    <path fill-rule="evenodd" clip-rule="evenodd"
        d="M78.9955 26.3927V39.2694H69.4978V39.0692C69.2125 39.1741 68.9119 39.275 68.596 39.3721C67.2337 39.7907 65.7992 40 64.2923 40C62.4963 40 60.7954 39.6765 59.1896 39.0297C57.5838 38.3828 56.1725 37.4886 54.9316 36.347C53.6987 35.2055 52.7284 33.8851 52.0206 32.3858C51.3129 30.8866 50.959 29.2922 50.959 27.6027C50.959 26.2442 51.2028 24.9221 51.6905 23.6364C51.0841 23.4648 50.5206 23.379 50 23.379C49.1933 23.379 48.4284 23.5883 47.7055 24.0068C46.9825 24.4254 46.4003 24.9695 45.9589 25.6392C45.5175 26.309 45.2968 27.0319 45.2968 27.8082V39.2694H40H35.7991H29.1781L26.9178 33.0137H13.0822L10.8219 39.2694H0L15.3425 1.59814H24.6575L35.7991 28.9546V15.8904H45.2968V19.1781C46.2709 17.9147 47.4087 16.9292 48.71 16.2214C50.0114 15.5137 51.3546 15.1598 52.7397 15.1598C53.6377 15.1598 54.589 15.312 55.5936 15.6172C56.519 15.8968 57.2958 16.2547 57.9241 16.6901C58.2595 16.5145 58.6053 16.3507 58.9613 16.1986C60.5823 15.5061 62.3441 15.1598 64.2467 15.1598C65.7383 15.1598 67.1842 15.3653 68.5846 15.7762C68.9058 15.8705 69.2102 15.9692 69.4978 16.0723V0H78.9955V18.0822C80.0762 17.1537 81.2977 16.4346 82.6599 15.9247C84.0222 15.4148 85.4034 15.1598 86.8037 15.1598C88.5846 15.1598 90.1789 15.5632 91.5868 16.3699C92.9948 17.1766 94.1097 18.2686 94.9316 19.6461C95.7535 21.0236 96.1725 22.5875 96.1725 24.3379V39.2694H86.6667V26.3927C86.6667 25.2207 86.3167 24.2808 85.6165 23.5731C84.9172 22.8653 83.9879 22.5114 82.8311 22.5114C82.0701 22.5114 81.4004 22.6712 80.822 22.9909C80.2436 23.3105 79.7946 23.7595 79.475 24.3379C79.1553 24.9163 78.9955 25.6012 78.9955 26.3927ZM69.4978 22.0548V33.105L68.7215 31.5068C68.4324 31.7047 68.0328 31.8835 67.5229 32.0434C67.013 32.2032 66.4537 32.2831 65.8448 32.2831C64.8555 32.2831 63.9955 32.0662 63.2649 31.6324C62.5343 31.1986 61.975 30.624 61.5868 29.9086C61.1987 29.1933 61.0046 28.417 61.0046 27.5799C61.0046 26.9102 61.1683 26.21 61.4955 25.4794C61.8228 24.7488 62.3403 24.1324 63.048 23.6301C63.7558 23.1278 64.6728 22.8767 65.7992 22.8767C66.9864 22.8767 67.9605 23.1354 68.7215 23.6529L69.4978 22.0548ZM16.5068 24.2009L20 15.2511L23.4931 24.2009H16.5068Z"
        fill="white" />
</svg>